<svg xmlns="http://www.w3.org/2000/svg" fill="none" viewBox="0 0 512 512">
    <g clip-path="url(#a)">
        <path d="M259.636 412.005c0 30.902.897 55.982 6.471 67.647 5.573 11.664 19.621 17.506 34.509 17.506V512H146.125v-14.842c14.869 0 32.754-4.206 38.327-16.441s6.471-36.439 6.471-64.982v-25.974s25.195 18.02 68.713 22.244Zm-68.713-200.389V94.629c0-30.58-.898-53.737-6.471-65.687-5.573-11.95-23.458-14.1-38.327-14.1V0h125.727c41.114 0 73.676 9.724 97.669 36.782C393.513 63.841 405.5 98.758 405.5 141.534c0 42.776-10.479 75.163-31.436 97.997-20.958 22.834-51.001 38.057-90.168 38.057 0 .019-72.283-44.698-92.973-65.972Zm82.685-182.464h-15.881v220.121c15.041 0 15.098.229 18.248.286 3.149.057 22.904-1.446 37.888-21.236 14.983-19.79 22.465-46.848 22.465-81.195 0-36.953-7.444-67.399-22.332-91.336-14.869-24.148-26.302-26.64-40.388-26.64Z" id="first"/>
        <path fill="url(#b)" d="M401.778 504.37s20.614-131.088-98.127-200.941C184.91 233.575 150.076 191.065 134.444 131.525c-15.633-59.54 9.238-102.373 9.238-102.373s-46.21 57.713-20.614 145.606c25.595 87.892 132.235 150.325 159.969 163.645 27.734 13.32 81.139 46.886 96.695 90.119 0 0-29.642-51.035-142.867-76.78-125.364-28.543-124.391-132.172-121.528-164.92 0 0-28.535 98.51 16.969 147.433 45.504 48.922 117.348 69.454 152.143 73.716 34.796 4.263 80.357 23.386 96.715 52.443 16.358 29.056 20.614 43.956 20.614 43.956Z"/>
    </g>
    <defs><linearGradient id="b" x1="254.826" x2="254.826" y1="29.152" y2="504.37" gradientUnits="userSpaceOnUse"><stop stop-color="#134e4a"/><stop offset="1" stop-color="#2dd4bf"/></linearGradient><clipPath id="a"><path fill="#fff" d="M106.5 0h299v512h-299z"/></clipPath></defs>
    <style>
        path#first { fill: #000; }
        @media (prefers-color-scheme: dark) {
            path#first { fill: #FFF; }
        }
    </style>
</svg>