<svg viewBox="0 0 24 24" fill="none" xmlns="http://www.w3.org/2000/svg">
<circle cx="11" cy="20" r="2" fill="#09375E"/>
<circle cx="20" cy="19" r="2" fill="#09375E"/>
<path d="M1 6.04131C3.44444 5.77346 4.8098 7.21445 5.5 13C6.1902 18.7855 16 14.4143 22 15.5" stroke="#09375E" stroke-width="1.5" stroke-linecap="round"/>
<path d="M7.19335 6.25488C7.20946 6.24872 19.5643 1.52411 21.9424 3.46972C24.3214 5.41718 21.9424 13.2168 21.9424 13.2168C21.8894 13.2254 17.6088 13.9137 13.6006 13.9893C13.6117 13.9781 13.6251 13.9694 13.6357 13.958L15.7217 11.7197L16.8135 12.2998C17.127 12.517 17.7268 12.5449 18.2773 12.3447C18.5455 12.2473 18.7817 12.1028 18.9541 11.9307C19.1265 11.7584 19.2271 11.5664 19.2422 11.3809L20.2471 5.5C20.2597 5.42533 20.242 5.35445 20.1963 5.29492C20.1505 5.23538 20.0778 5.18899 19.9863 5.16113C19.8951 5.13341 19.7882 5.12524 19.6767 5.13672C19.5651 5.14825 19.4525 5.17891 19.3515 5.22656L11.3633 8.98633C10.8645 9.19672 10.5206 9.59423 10.5371 9.96777L10.5449 10.0361C10.5709 10.1909 10.6612 10.3281 10.8066 10.4336C10.9522 10.5391 11.1478 10.6094 11.373 10.6367L11.4258 10.6416L12.8535 10.8398L10.7676 13.0791C10.6687 13.1852 10.5979 13.2988 10.5596 13.4131C10.5213 13.5273 10.5159 13.6401 10.5439 13.7451C10.5587 13.8004 10.5828 13.8533 10.6152 13.9023C10.0701 13.8516 9.55837 13.7807 9.09667 13.6807C6.11788 13.0349 7.18424 6.31191 7.19335 6.25488Z" fill="#0E8ED7"/>
</svg>
